<svg width="50" height="58" viewBox="0 0 50 58" fill="none" xmlns="http://www.w3.org/2000/svg">
<path d="M41.6596 55.673C38.4289 58.7337 34.9015 58.2504 31.506 56.8006C27.9127 55.3186 24.6161 55.2541 20.825 56.8006C16.0778 58.7981 13.5724 58.2182 10.7373 55.673C-5.35015 39.4672 -2.97658 14.7881 15.2867 13.886C19.7371 14.1116 22.8359 16.2702 25.4402 16.4635C29.3302 15.6902 33.0554 13.4672 37.2091 13.7572C42.187 14.1438 45.9452 16.0769 48.4176 19.5564C38.1322 25.5812 40.5717 38.8229 50 42.528C48.1209 47.3607 45.6814 52.1612 41.6266 55.7052L41.6596 55.673ZM25.1106 13.6927C24.6161 6.50807 30.5829 0.579927 37.4399 0C38.3959 8.31228 29.7258 14.4982 25.1106 13.6927Z" fill="white"/>
</svg>
