<svg width="63" height="44" viewBox="0 0 63 44" fill="none" xmlns="http://www.w3.org/2000/svg">
<path d="M18.9 22C24.9933 22 29.925 17.0795 29.925 11C29.925 4.92054 24.9933 0 18.9 0C12.8067 0 7.875 4.92054 7.875 11C7.875 17.0795 12.8067 22 18.9 22ZM26.46 25.1429H25.643C23.5955 26.125 21.3216 26.7143 18.9 26.7143C16.4784 26.7143 14.2144 26.125 12.157 25.1429H11.34C5.07937 25.1429 0 30.2107 0 36.4571V39.2857C0 41.8884 2.11641 44 4.725 44H33.075C35.6836 44 37.8 41.8884 37.8 39.2857V36.4571C37.8 30.2107 32.7206 25.1429 26.46 25.1429ZM47.25 22C52.4672 22 56.7 17.7768 56.7 12.5714C56.7 7.36607 52.4672 3.14286 47.25 3.14286C42.0328 3.14286 37.8 7.36607 37.8 12.5714C37.8 17.7768 42.0328 22 47.25 22ZM51.975 25.1429H51.6009C50.2327 25.6143 48.7856 25.9286 47.25 25.9286C45.7144 25.9286 44.2673 25.6143 42.8991 25.1429H42.525C40.5169 25.1429 38.6662 25.7223 37.042 26.6554C39.4439 29.2384 40.95 32.6661 40.95 36.4571V40.2286C40.95 40.4446 40.9008 40.6509 40.8909 40.8571H58.275C60.8836 40.8571 63 38.7455 63 36.1429C63 30.0634 58.0683 25.1429 51.975 25.1429Z" fill="white"/>
</svg>
