<svg width="31" height="33" viewBox="0 0 31 33" fill="none" xmlns="http://www.w3.org/2000/svg">
<path d="M22.8616 21.5951C26.7806 19.4573 29.7736 17.8245 30.0458 17.6758C30.858 17.2327 31.7088 16.1022 30.0458 15.1985C29.5113 14.9075 26.5988 13.3247 22.857 11.2902L17.7106 16.4586L22.8616 21.5951Z" fill="#FFE300"/>
<path d="M17.7106 16.4586L1.25002 32.9887C1.62174 33.0357 2.06883 32.9376 2.58309 32.657C3.64775 32.0763 15.0814 25.8394 22.8616 21.5951L17.7106 16.4586Z" fill="#FF4E54"/>
<path d="M17.7106 16.4586L22.857 11.2902C22.857 11.2902 3.72824 0.889159 2.58308 0.266515C2.14291 0.0271156 1.66301 -0.0564317 1.23822 0.0378464L17.7106 16.4586Z" fill="#00F085"/>
<path d="M17.7106 16.4586L1.23822 0.0378464C0.557841 0.1891 0 0.776232 0 1.95586V31.0185C0 32.1294 0.438896 32.9107 1.25002 32.9887L17.7106 16.4586Z" fill="#00E0FF"/>
</svg>
