<svg width="28" height="28" viewBox="0 0 28 28" fill="none" xmlns="http://www.w3.org/2000/svg">
<path d="M14 0C11.2311 0 8.52431 0.821086 6.22202 2.35943C3.91973 3.89776 2.12532 6.08427 1.06569 8.64243C0.006066 11.2006 -0.271181 14.0155 0.269012 16.7313C0.809205 19.447 2.14258 21.9416 4.10051 23.8995C6.05845 25.8574 8.55301 27.1908 11.2687 27.731C13.9845 28.2712 16.7994 27.9939 19.3576 26.9343C21.9157 25.8747 24.1022 24.0803 25.6406 21.778C27.1789 19.4757 28 16.7689 28 14C27.9929 10.2892 26.5156 6.73233 23.8916 4.10836C21.2677 1.4844 17.7108 0.00711573 14 0ZM15.6154 20.4615H15.0769V21.5385C15.0769 21.8241 14.9635 22.098 14.7615 22.3C14.5595 22.5019 14.2856 22.6154 14 22.6154C13.7144 22.6154 13.4405 22.5019 13.2385 22.3C13.0365 22.098 12.9231 21.8241 12.9231 21.5385V20.4615H10.7692C10.4836 20.4615 10.2097 20.3481 10.0077 20.1461C9.80577 19.9441 9.69231 19.6702 9.69231 19.3846C9.69231 19.099 9.80577 18.8251 10.0077 18.6231C10.2097 18.4211 10.4836 18.3077 10.7692 18.3077H15.6154C16.0438 18.3077 16.4547 18.1375 16.7576 17.8346C17.0606 17.5316 17.2308 17.1207 17.2308 16.6923C17.2308 16.2639 17.0606 15.853 16.7576 15.5501C16.4547 15.2471 16.0438 15.0769 15.6154 15.0769H12.3846C11.385 15.0769 10.4262 14.6798 9.71937 13.9729C9.0125 13.2661 8.61539 12.3074 8.61539 11.3077C8.61539 10.308 9.0125 9.34931 9.71937 8.64244C10.4262 7.93557 11.385 7.53846 12.3846 7.53846H12.9231V6.46154C12.9231 6.17592 13.0365 5.902 13.2385 5.70004C13.4405 5.49808 13.7144 5.38461 14 5.38461C14.2856 5.38461 14.5595 5.49808 14.7615 5.70004C14.9635 5.902 15.0769 6.17592 15.0769 6.46154V7.53846H17.2308C17.5164 7.53846 17.7903 7.65192 17.9923 7.85388C18.1942 8.05585 18.3077 8.32977 18.3077 8.61538C18.3077 8.901 18.1942 9.17492 17.9923 9.37688C17.7903 9.57884 17.5164 9.69231 17.2308 9.69231H12.3846C11.9562 9.69231 11.5453 9.8625 11.2424 10.1654C10.9394 10.4684 10.7692 10.8793 10.7692 11.3077C10.7692 11.7361 10.9394 12.147 11.2424 12.4499C11.5453 12.7529 11.9562 12.9231 12.3846 12.9231H15.6154C16.615 12.9231 17.5738 13.3202 18.2806 14.0271C18.9875 14.7339 19.3846 15.6926 19.3846 16.6923C19.3846 17.692 18.9875 18.6507 18.2806 19.3576C17.5738 20.0644 16.615 20.4615 15.6154 20.4615Z" fill="white"/>
</svg>
