<svg width="63" height="63" viewBox="0 0 63 63" fill="none" xmlns="http://www.w3.org/2000/svg">
<path d="M31.5 0C25.2699 0 19.1797 1.84744 13.9995 5.30871C8.8194 8.76997 4.78197 13.6896 2.39781 19.4455C0.0136484 25.2013 -0.610157 31.5349 0.605278 37.6453C1.82071 43.7557 4.8208 49.3685 9.22615 53.7738C13.6315 58.1792 19.2443 61.1793 25.3547 62.3947C31.4651 63.6102 37.7987 62.9864 43.5545 60.6022C49.3104 58.218 54.23 54.1806 57.6913 49.0005C61.1526 43.8203 63 37.7301 63 31.5C62.984 23.1506 59.6601 15.1477 53.7562 9.24382C47.8522 3.33989 39.8494 0.0160104 31.5 0ZM35.1346 46.0385H33.9231V48.4615C33.9231 49.1042 33.6678 49.7205 33.2134 50.1749C32.759 50.6293 32.1426 50.8846 31.5 50.8846C30.8574 50.8846 30.241 50.6293 29.7866 50.1749C29.3322 49.7205 29.0769 49.1042 29.0769 48.4615V46.0385H24.2308C23.5881 46.0385 22.9718 45.7832 22.5174 45.3288C22.063 44.8743 21.8077 44.258 21.8077 43.6154C21.8077 42.9727 22.063 42.3564 22.5174 41.902C22.9718 41.4476 23.5881 41.1923 24.2308 41.1923H35.1346C36.0986 41.1923 37.0231 40.8094 37.7047 40.1277C38.3863 39.4461 38.7692 38.5216 38.7692 37.5577C38.7692 36.5937 38.3863 35.6693 37.7047 34.9876C37.0231 34.306 36.0986 33.9231 35.1346 33.9231H27.8654C25.6162 33.9231 23.459 33.0296 21.8686 31.4391C20.2781 29.8487 19.3846 27.6915 19.3846 25.4423C19.3846 23.1931 20.2781 21.0359 21.8686 19.4455C23.459 17.855 25.6162 16.9615 27.8654 16.9615H29.0769V14.5385C29.0769 13.8958 29.3322 13.2795 29.7866 12.8251C30.241 12.3707 30.8574 12.1154 31.5 12.1154C32.1426 12.1154 32.759 12.3707 33.2134 12.8251C33.6678 13.2795 33.9231 13.8958 33.9231 14.5385V16.9615H38.7692C39.4119 16.9615 40.0282 17.2168 40.4826 17.6712C40.937 18.1257 41.1923 18.742 41.1923 19.3846C41.1923 20.0273 40.937 20.6436 40.4826 21.098C40.0282 21.5524 39.4119 21.8077 38.7692 21.8077H27.8654C26.9014 21.8077 25.977 22.1906 25.2953 22.8722C24.6137 23.5539 24.2308 24.4783 24.2308 25.4423C24.2308 26.4063 24.6137 27.3307 25.2953 28.0124C25.977 28.694 26.9014 29.0769 27.8654 29.0769H35.1346C37.3839 29.0769 39.541 29.9704 41.1314 31.5609C42.7219 33.1513 43.6154 35.3084 43.6154 37.5577C43.6154 39.8069 42.7219 41.964 41.1314 43.5545C39.541 45.1449 37.3839 46.0385 35.1346 46.0385Z" fill="white"/>
</svg>
