<svg width="53" height="53" viewBox="0 0 53 53" fill="none" xmlns="http://www.w3.org/2000/svg">
<path d="M17.5 52.5H5.83333C4.22917 52.5 2.85542 51.9293 1.71208 50.7879C0.570694 49.6446 0 48.2708 0 46.6667V26.25C0 22.6042 0.692222 19.1888 2.07667 16.0038C3.46306 12.8207 5.33556 10.0499 7.69417 7.69125C10.0508 5.33458 12.8217 3.46306 16.0067 2.07667C19.1897 0.692222 22.6042 0 26.25 0C29.8958 0 33.3112 0.692222 36.4963 2.07667C39.6793 3.46306 42.4501 5.33458 44.8088 7.69125C47.1654 10.0499 49.0369 12.8207 50.4233 16.0038C51.8078 19.1888 52.5 22.6042 52.5 26.25V46.6667C52.5 48.2708 51.9293 49.6446 50.7879 50.7879C49.6446 51.9293 48.2708 52.5 46.6667 52.5H35V29.1667H46.6667V26.25C46.6667 20.5625 44.6853 15.7374 40.7225 11.7746C36.7617 7.81375 31.9375 5.83333 26.25 5.83333C20.5625 5.83333 15.7383 7.81375 11.7775 11.7746C7.81472 15.7374 5.83333 20.5625 5.83333 26.25V29.1667H17.5V52.5Z" fill="white"/>
</svg>
