<svg width="52" height="56" viewBox="0 0 52 56" fill="none" xmlns="http://www.w3.org/2000/svg">
<path d="M38.3485 36.6463C44.9223 33.0186 49.9428 30.2477 50.3995 29.9953C51.7618 29.2435 53.189 27.325 50.3995 25.7915C49.5029 25.2976 44.6174 22.6117 38.3408 19.1592L29.7081 27.9298L38.3485 36.6463Z" fill="#FFE300"/>
<path d="M29.7081 27.9298L2.0968 55.9809C2.72034 56.0607 3.47029 55.8942 4.33292 55.4181C6.1188 54.4326 25.2978 43.8487 38.3485 36.6463L29.7081 27.9298Z" fill="#FF4E54"/>
<path d="M29.7081 27.9298L38.3408 19.1592C38.3408 19.1592 6.25382 1.50898 4.33291 0.452372C3.59456 0.0461178 2.78956 -0.0956593 2.07701 0.0643277L29.7081 27.9298Z" fill="#00F085"/>
<path d="M29.7081 27.9298L2.07701 0.0643277C0.935733 0.321001 0 1.31735 0 3.31913V52.6376C0 54.5228 0.736212 55.8486 2.0968 55.9809L29.7081 27.9298Z" fill="#00E0FF"/>
</svg>
