<svg width="12" height="24" viewBox="0 0 12 24" fill="none" xmlns="http://www.w3.org/2000/svg">
<path opacity="0.86" d="M0 1.2737V12.737C0 13.4375 0.554706 14.0107 1.23268 14.0107H3.69804V23.1177C3.69804 23.7673 4.52394 23.9965 4.84444 23.4361L11.2421 12.1002C11.3519 11.9074 11.4105 11.6881 11.4117 11.4644C11.413 11.2407 11.357 11.0206 11.2493 10.8266C11.1416 10.6325 10.9861 10.4714 10.7987 10.3595C10.6112 10.2476 10.3984 10.189 10.1819 10.1896H7.39608L10.4655 1.7195C10.5367 1.52755 10.5617 1.32056 10.5382 1.11642C10.5146 0.912274 10.4434 0.717118 10.3305 0.547817C10.2176 0.378516 10.0665 0.240164 9.89032 0.144717C9.7141 0.0492708 9.51803 -0.000398468 9.31907 2.40742e-06H1.23268C0.554706 2.40742e-06 0 0.573168 0 1.2737Z" fill="#FFCE61"/>
</svg>
